HIERARCHY
ROOT SpineBase
{
  OFFSET 0.000000 0.000000 0.000000
  CHANNELS 6 Xposition Yposition Zposition Zrotation Xrotation Yrotation
  JOINT SpineMid
  {
    OFFSET 0.000000 29.482721 0.000000
    CHANNELS 3 Zrotation Xrotation Yrotation
    JOINT SpineShoulder
    {
      OFFSET 0.037099 22.161850 -0.637067
      CHANNELS 3 Zrotation Xrotation Yrotation
      JOINT Neck
      {
        OFFSET 0.038829 7.400112 -0.548006
        CHANNELS 3 Zrotation Xrotation Yrotation
        JOINT Head
        {
          OFFSET 2.970678 10.967535 4.395961
          CHANNELS 3 Zrotation Xrotation Yrotation
          End Site
          {
            OFFSET 0 0 0
          }
        }
      }
      JOINT ShoulderLeft
      {
        OFFSET -5.997371 -3.699929 -2.973372
        CHANNELS 3 Zrotation Xrotation Yrotation
        JOINT ElbowLeft
        {
          OFFSET 10.373220 -20.363353 -7.549008
          CHANNELS 3 Zrotation Xrotation Yrotation
          JOINT WristLeft
          {
            OFFSET 5.611947 -20.544936 1.848584
            CHANNELS 3 Zrotation Xrotation Yrotation
            JOINT HandLeft
            {
              OFFSET 0.710565 -7.668027 0.915266
              CHANNELS 3 Zrotation Xrotation Yrotation
              JOINT HandTipLeft
              {
                OFFSET 2.943258 -6.546836 0.344658
                CHANNELS 3 Zrotation Xrotation Yrotation
                End Site
                {
                  OFFSET 0 0 0
                }
              }
              JOINT ThumbLeft
              {
                OFFSET -3.422069 1.449804 -1.679288
                CHANNELS 3 Zrotation Xrotation Yrotation
                End Site
                {
                  OFFSET 0 0 0
                }
              }
            }
          }
        }
      }
      JOINT ShoulderRight
      {
        OFFSET 7.128207 -3.930059 -12.682585
        CHANNELS 3 Zrotation Xrotation Yrotation
        JOINT ElbowRight
        {
          OFFSET 0.920068 -19.048336 -4.376993
          CHANNELS 3 Zrotation Xrotation Yrotation
          JOINT WristRight
          {
            OFFSET 3.401521 -19.134361 6.503469
            CHANNELS 3 Zrotation Xrotation Yrotation
            JOINT HandRight
            {
              OFFSET 0.076101 -8.984747 2.091541
              CHANNELS 3 Zrotation Xrotation Yrotation
              JOINT HandTipRight
              {
                OFFSET 2.401539 -6.071741 0.851248
                CHANNELS 3 Zrotation Xrotation Yrotation
                End Site
                {
                  OFFSET 0 0 0
                }
              }
              JOINT ThumbRight
              {
                OFFSET -3.615614 3.906330 -0.725772
                CHANNELS 3 Zrotation Xrotation Yrotation
                End Site
                {
                  OFFSET 0 0 0
                }
              }
            }
          }
        }
      }
    }
  }
  JOINT HipLeft
  {
    OFFSET -4.403589 0.672200 -3.422659
    CHANNELS 3 Zrotation Xrotation Yrotation
    JOINT KneeLeft
    {
      OFFSET 6.441660 -32.090517 -2.017649
      CHANNELS 3 Zrotation Xrotation Yrotation
      JOINT AnkleLeft
      {
        OFFSET -4.771887 -32.674523 1.020874
        CHANNELS 3 Zrotation Xrotation Yrotation
        JOINT FootLeft
        {
          OFFSET -5.292197 -2.177605 -9.483126
          CHANNELS 3 Zrotation Xrotation Yrotation
          End Site
          {
            OFFSET 0 0 0
          }
        }
      }
    }
  }
  JOINT HipRight
  {
    OFFSET 4.270681 2.271545 -2.280352
    CHANNELS 3 Zrotation Xrotation Yrotation
    JOINT KneeRight
    {
      OFFSET -12.140942 -29.109657 13.115071
      CHANNELS 3 Zrotation Xrotation Yrotation
      JOINT AnkleRight
      {
        OFFSET -3.634390 -42.195486 10.491031
        CHANNELS 3 Zrotation Xrotation Yrotation
        JOINT FootRight
        {
          OFFSET -5.215413 -2.260341 -9.542156
          CHANNELS 3 Zrotation Xrotation Yrotation
          End Site
          {
            OFFSET 0 0 0
          }
        }
      }
    }
  }
}
MOTION
Frames: 15
Frame Time: 0.033333
2.261139 74.473797 279.912794 -0.000000 0.000000 -7.502066 -0.000000 0.000000 7.502066 -0.000000 0.000000 0.000000 -0.000000 0.000000 0.000000 0.000000 0.000000 0.000000 -0.000000 0.000000 0.000000 -0.000000 0.000000 0.000000 -0.000000 0.000000 0.000000 -0.000000 0.000000 0.000000 0.000000 0.000000 0.000000 0.000000 0.000000 0.000000 -0.000000 0.000000 0.000000 -0.000000 0.000000 0.000000 -0.000000 0.000000 0.000000 -0.000000 0.000000 0.000000 0.000000 0.000000 0.000000 0.000000 0.000000 0.000000 -0.000000 0.000000 7.502066 -0.000000 0.000000 0.000000 -0.000000 0.000000 0.000000 0.000000 0.000000 0.000000 -0.000000 0.000000 7.502066 -0.000000 0.000000 0.000000 -0.000000 0.000000 0.000000 0.000000 0.000000 0.000000
2.316951 74.425379 280.060487 -0.026687 -0.091277 -7.594939 0.014389 0.094003 7.594906 -0.000000 0.000000 0.000000 -0.000000 0.000000 0.000000 0.000000 0.000000 0.000000 0.029381 0.890140 0.441002 -0.036236 -0.889888 -0.441512 2.365244 -1.887956 0.145806 -4.333893 0.970192 -0.541394 0.000000 0.000000 0.000000 0.000000 0.000000 0.000000 2.076033 -1.045052 -0.509252 -2.823653 1.797761 0.454918 3.021931 -0.020816 0.671696 -4.348337 0.061612 -0.550454 0.000000 0.000000 0.000000 0.000000 0.000000 0.000000 0.014389 0.094003 7.594906 -0.000000 0.000000 0.000000 -0.000000 0.000000 0.000000 0.000000 0.000000 0.000000 0.014389 0.094003 7.594906 -0.000000 0.000000 0.000000 -0.000000 0.000000 0.000000 0.000000 0.000000 0.000000
2.391554 74.390701 280.191088 -0.017978 -0.191376 -7.688334 -0.007787 0.192061 7.688317 -0.000000 0.000000 0.000000 -0.000000 0.000000 0.000000 0.000000 0.000000 0.000000 0.003992 1.463928 0.740712 1.069986 -1.419217 -0.599650 3.308288 -3.194067 0.244196 -8.126286 1.259728 -1.030175 0.000000 0.000000 0.000000 0.000000 0.000000 0.000000 3.814976 -1.958556 -0.908407 -5.283228 3.356543 0.888294 6.096238 -0.290869 1.409891 -8.685340 0.448583 -1.159858 0.000000 0.000000 0.000000 0.000000 0.000000 0.000000 -0.007787 0.192061 7.688317 -0.000000 0.000000 0.000000 -0.000000 0.000000 0.000000 0.000000 0.000000 0.000000 -0.007787 0.192061 7.688317 -0.000000 0.000000 0.000000 -0.000000 0.000000 0.000000 0.000000 0.000000 0.000000
2.484946 74.369763 280.304598 0.026054 -0.300374 -7.782725 -0.066490 0.294079 7.782964 -0.000000 0.000000 0.000000 -0.000000 0.000000 0.000000 0.000000 0.000000 0.000000 -0.071544 1.722108 0.900169 1.646012 -1.512432 -0.646015 4.529954 -4.006230 0.396692 -11.314764 0.927009 -1.560010 0.000000 0.000000 0.000000 0.000000 0.000000 0.000000 5.243937 -2.743449 -1.216651 -7.398690 4.699732 1.283190 9.139594 -0.873780 2.206511 -12.889329 1.206539 -1.738635 0.000000 0.000000 0.000000 0.000000 0.000000 0.000000 -0.066490 0.294079 7.782964 -0.000000 0.000000 0.000000 -0.000000 0.000000 0.000000 0.000000 0.000000 0.000000 -0.066490 0.294079 7.782964 -0.000000 0.000000 0.000000 -0.000000 0.000000 0.000000 0.000000 0.000000 0.000000
2.597129 74.362565 280.401016 0.105406 -0.418363 -7.878718 0.025521 -0.457137 7.883179 0.119658 -0.028289 0.014340 -0.666158 1.705245 -0.031505 0.000000 0.000000 0.000000 -0.382062 2.568273 0.905201 2.264575 -1.183779 -0.534302 5.475465 -4.342759 0.530245 -13.853663 0.035106 -2.189539 0.000000 0.000000 0.000000 0.000000 0.000000 0.000000 6.194757 -2.509559 -1.567443 -9.189592 5.849094 1.627724 12.057789 -1.808235 3.050668 -16.831381 2.336432 -2.195053 0.000000 0.000000 0.000000 0.000000 0.000000 0.000000 -0.161762 0.399964 7.879667 -0.000000 0.000000 0.000000 -0.060747 -0.238785 0.851346 0.000000 0.000000 0.000000 -0.161762 0.399964 7.879667 -0.000000 0.000000 0.000000 -0.049096 -0.268219 0.833421 0.000000 0.000000 0.000000
2.728102 74.369107 280.480343 0.220142 -0.545451 -7.977017 0.008018 -0.516115 7.985654 0.153711 -0.025301 0.021015 -0.972976 2.125919 -0.023554 0.000000 0.000000 0.000000 -0.676050 2.376426 0.778049 2.932206 -0.418837 -0.271598 6.152594 -4.237609 0.625295 -15.721109 -1.360773 -2.942671 0.000000 0.000000 0.000000 0.000000 0.000000 0.000000 6.951649 -2.878774 -1.783384 -10.674357 6.824001 1.913825 14.758287 -3.099804 3.926263 -20.392557 3.790765 -2.455854 0.000000 0.000000 0.000000 0.000000 0.000000 0.000000 -0.293718 0.509618 7.979371 -0.000000 0.000000 0.000000 -0.051370 -0.295000 0.950105 0.000000 0.000000 0.000000 -0.293718 0.509618 7.979371 -0.000000 0.000000 0.000000 -0.035647 -0.332162 0.927462 0.000000 0.000000 0.000000
2.941966 74.425211 280.566857 0.434521 -0.685411 -7.958467 -0.068855 -0.489478 7.973908 0.203003 0.040063 0.030237 -1.161931 1.858896 0.044119 0.000000 0.000000 0.000000 -0.500725 1.120897 -0.038091 3.421486 1.854524 0.754106 7.051165 -2.422142 0.724510 -18.173070 -4.567438 -4.322036 0.000000 0.000000 0.000000 0.000000 0.000000 0.000000 8.149759 -3.760127 -2.079778 -12.913399 8.352981 2.444246 17.890380 -5.862575 5.159462 -26.134156 6.855446 -2.226963 0.000000 0.000000 0.000000 0.000000 0.000000 0.000000 -1.544176 0.541720 8.051535 1.706291 0.885800 -0.199567 -0.751755 -1.306486 1.279958 0.000000 0.000000 0.000000 -1.326518 0.821994 7.499601 0.767830 -0.306121 0.476426 -0.037143 -0.412318 1.124235 0.000000 0.000000 0.000000
3.105203 74.470773 280.630447 0.607377 -0.853309 -8.036253 -0.095925 -0.505180 8.059102 0.265861 0.043984 0.040835 -1.593369 2.306138 0.058672 0.000000 0.000000 0.000000 -1.776937 -0.340307 -0.484652 5.173146 4.538686 1.351931 7.353558 -0.123366 0.677431 -18.469099 -9.371125 -6.234287 0.000000 0.000000 0.000000 0.000000 0.000000 0.000000 8.331470 -4.000815 -2.190978 -13.981631 9.221072 2.616077 20.223386 -8.477171 6.233502 -29.186728 8.950504 -1.861263 0.000000 0.000000 0.000000 0.000000 0.000000 0.000000 -1.951111 0.605412 8.142225 1.239749 -0.021095 -0.081780 -1.804740 2.397215 1.833581 0.000000 0.000000 0.000000 -1.676106 1.051186 7.477783 0.909270 -0.412916 0.586149 -0.016345 -0.489517 1.219982 0.000000 0.000000 0.000000
3.278254 74.516814 280.641957 0.835102 -1.023966 -8.164267 -0.130609 -0.545454 8.197392 0.297753 0.007833 0.051852 -2.138505 3.222402 0.016992 0.000000 0.000000 0.000000 -2.373463 -1.263333 -0.966739 5.436974 6.114121 1.798462 7.486820 -0.050876 0.653399 -17.684976 -9.339859 -5.976292 0.000000 0.000000 0.000000 0.000000 0.000000 0.000000 7.617451 -3.707636 -2.138621 -13.896785 9.435833 2.436135 22.521855 -10.681143 7.320286 -28.876280 11.483553 -1.109844 0.000000 0.000000 0.000000 0.000000 0.000000 0.000000 -2.434646 0.626839 8.280930 1.485699 0.054852 -0.082899 -1.335992 1.680082 1.606321 0.000000 0.000000 0.000000 -2.015522 1.239809 7.552380 0.988897 -0.478850 0.650509 0.040478 -0.556175 1.136803 0.000000 0.000000 0.000000
3.465168 74.555700 280.627292 1.099183 -1.166477 -8.223647 -0.193644 -0.556355 8.268284 0.293432 0.002941 0.060816 -2.816286 4.192009 0.013978 0.000000 0.000000 0.000000 -3.102484 -2.468012 -1.506027 7.322089 9.359829 2.564648 4.308664 0.838228 -0.021266 -16.267295 -14.509091 -7.816695 0.000000 0.000000 0.000000 0.000000 0.000000 0.000000 6.250885 -2.925764 -1.927629 -12.773846 8.812559 1.933397 23.516139 -11.656560 7.805897 -25.522014 12.791872 -0.872098 0.000000 0.000000 0.000000 0.000000 0.000000 0.000000 -2.927385 0.626424 8.351707 1.541548 -0.802054 0.044972 1.185772 -1.108025 0.406265 0.000000 0.000000 0.000000 -2.551565 1.384241 7.483995 1.235068 -0.552419 0.794660 0.114845 -0.599409 0.921293 0.000000 0.000000 0.000000
3.629043 74.573606 280.585283 1.330347 -1.244882 -8.376598 -0.260487 -0.522270 8.430559 0.258203 0.040875 0.065781 -3.093042 4.450955 0.004318 0.000000 0.000000 0.000000 -2.971516 -1.939436 -1.323093 6.455779 8.431487 2.382466 4.149251 -0.496739 -0.025851 -14.892292 -12.425976 -6.846839 0.000000 0.000000 0.000000 0.000000 0.000000 0.000000 5.045764 -1.677538 -1.702356 -11.339111 7.152931 1.337639 22.311400 -9.624216 7.089618 -22.472832 8.508277 -2.457314 0.000000 0.000000 0.000000 0.000000 0.000000 0.000000 -3.349849 0.606749 8.519548 1.477915 -0.944985 0.053436 9.335424 -14.398307 -1.571115 0.000000 0.000000 0.000000 -3.037326 1.421116 7.527300 1.475929 -0.581492 0.917833 0.190587 -0.605474 0.609415 0.000000 0.000000 0.000000
3.713948 74.517957 280.469884 1.449555 -1.236433 -8.392958 -0.250126 -0.549000 8.452491 0.226377 0.043030 0.069539 -3.107844 4.496191 -0.042590 0.000000 0.000000 0.000000 -2.664322 -0.876040 -0.917863 4.824713 5.836962 1.736585 4.277700 -2.212754 0.118209 -12.189753 -7.541510 -4.700605 0.000000 0.000000 0.000000 0.000000 0.000000 0.000000 3.920344 -0.541643 -1.464803 -10.289995 5.894342 0.797197 21.508070 -9.540116 6.790147 -20.523958 7.089138 -2.902177 0.000000 0.000000 0.000000 0.000000 0.000000 0.000000 -3.505037 0.501258 8.524749 1.345224 -0.810720 0.048660 18.511735 -29.308246 -1.267508 0.000000 0.000000 0.000000 -3.324943 1.218097 7.521684 1.668239 -0.428382 0.940674 0.218249 -0.618260 0.520528 0.000000 0.000000 0.000000
3.699819 74.456911 280.349099 1.409360 -1.161572 -8.263111 -0.155089 -0.549266 8.322049 0.191025 0.057144 0.069590 -2.975886 4.031069 -0.015274 0.000000 0.000000 0.000000 -2.808424 -1.101010 -0.954723 3.776323 4.817111 1.448628 4.456803 -0.355318 0.308079 -9.232469 -6.554267 -3.618469 0.000000 0.000000 0.000000 0.000000 0.000000 0.000000 2.842279 0.549625 -1.189857 -9.221782 4.598798 0.268507 20.139960 -8.715957 6.222773 -17.240384 4.340515 -3.551497 0.000000 0.000000 0.000000 0.000000 0.000000 0.000000 -3.353445 0.374685 8.366125 1.025454 -0.457055 0.024253 26.552334 -40.187687 1.162670 0.000000 0.000000 0.000000 -3.241431 0.967377 7.465523 1.662457 -0.238355 0.856290 0.211891 -0.606335 0.519472 0.000000 0.000000 0.000000
3.624683 74.312552 280.221422 1.302126 -1.104908 -8.092274 0.016199 -0.583542 8.150471 0.274898 -0.044503 0.079041 -3.241820 3.958923 0.079637 0.000000 0.000000 0.000000 -2.802228 -0.411310 -0.705314 2.882758 4.078705 1.175628 3.629622 -1.126877 0.149382 -6.949868 -5.614666 -3.122261 0.000000 0.000000 0.000000 0.000000 0.000000 0.000000 1.802518 1.517246 -0.961727 -8.328726 3.629770 -0.137346 18.940910 -7.151698 5.665035 -14.572853 0.761604 -4.271766 0.000000 0.000000 0.000000 0.000000 0.000000 0.000000 -3.141174 0.291149 8.170390 0.942202 0.060536 -0.019132 30.258895 -44.123911 3.918730 0.000000 0.000000 0.000000 -2.986582 0.607139 7.468130 1.567888 0.100484 0.667220 -0.507294 1.322649 -0.854154 0.000000 0.000000 0.000000
3.486459 74.122023 280.095637 1.106200 -0.993977 -7.922276 0.111664 -0.530660 7.972715 0.322252 -0.046947 0.077596 -3.871276 3.724697 0.395989 0.000000 0.000000 0.000000 -2.767375 0.190379 -0.307113 2.003651 3.081938 0.709629 3.244042 -2.690941 0.000028 -4.592948 -3.401085 -2.378421 0.000000 0.000000 0.000000 0.000000 0.000000 0.000000 1.130910 2.242240 -0.745108 -7.603201 2.721685 -0.463939 17.425089 -5.300064 5.017608 -12.156795 -3.784071 -5.097975 0.000000 0.000000 0.000000 0.000000 0.000000 0.000000 -2.820229 0.127081 7.963068 1.669720 0.478122 -0.015929 19.234345 -31.747835 -0.240382 0.000000 0.000000 0.000000 -2.522879 0.098648 7.561222 1.375326 0.557092 0.383389 -0.000000 0.000000 0.000000 0.000000 0.000000 0.000000
